<svg width="229" height="174" viewBox="0 0 229 174" fill="none" xmlns="http://www.w3.org/2000/svg">
<path fill-rule="evenodd" clip-rule="evenodd" d="M141.508 143.082C150.67 153.457 164.071 160 179 160C206.614 160 229 137.614 229 110C229 88.283 215.155 69.7999 195.809 62.8958C196.589 59.3883 197 55.7422 197 52C197 24.3858 174.614 2 147 2C136.798 2 127.31 5.05524 119.401 10.3006C110.977 3.83984 100.437 0 89 0C63.7232 0 42.8271 18.7565 39.4708 43.1106C16.9126 47.9457 0 67.9978 0 92C0 109.184 8.66864 124.343 21.8715 133.343C26.2471 156.492 46.579 174 71 174C88.241 174 103.444 165.274 112.433 151.997C112.622 151.999 112.811 152 113 152C123.596 152 133.421 148.704 141.508 143.082Z" fill="#818CF8"/>
</svg>
