<svg width="219" height="172" viewBox="0 0 219 172" fill="none" xmlns="http://www.w3.org/2000/svg">
<path fill-rule="evenodd" clip-rule="evenodd" d="M131 0C157.063 0 178.468 19.9411 180.791 45.3983C202.715 50.6984 219 70.4474 219 94C219 121.614 196.614 144 169 144C165.378 144 161.846 143.615 158.443 142.883C150.532 160.069 133.16 172 113 172C102.584 172 92.912 168.815 84.9046 163.366C77.5718 167.586 69.0678 170 60 170C32.3857 170 10 147.614 10 120C10 116.658 10.3279 113.392 10.9533 110.234C4.09924 101.676 0 90.8168 0 79C0 57.0746 14.1124 38.4453 33.7493 31.7001C42.1268 15.8225 58.7995 5 78 5C86.1057 5 93.7609 6.92879 100.532 10.3524C108.967 3.86037 119.533 0 131 0Z" fill="#818CF8"/>
</svg>
